<svg width="11" height="12" viewBox="0 0 11 12" fill="none" xmlns="http://www.w3.org/2000/svg">
    <path d="M9.75951 1.91631C9.47185 1.66501 8.30741 0.863709 5.71128 0.852996C5.71128 0.852996 2.65076 0.679005 1.16012 1.9765C0.330983 2.76269 0.038758 3.91628 0.0070338 5.3448C-0.0246904 6.77337 -0.0631982 9.44993 2.65754 10.176H2.65978L2.65754 11.2845C2.65754 11.2845 2.63943 11.7335 2.95203 11.8237C3.32811 11.9354 3.5501 11.5939 3.91029 11.2265C4.10739 11.0246 4.37922 10.7281 4.58537 10.5025C6.44752 10.6508 7.87702 10.3114 8.0401 10.262C8.41618 10.146 10.5434 9.88818 10.8877 7.21157C11.2456 4.44902 10.7155 2.7047 9.75951 1.91631Z" fill="#834995"/>
    <path d="M10.0744 7.00962C9.7822 9.24366 8.05822 9.38546 7.74108 9.48215C7.60516 9.52294 6.34787 9.81942 4.7689 9.72276C4.7689 9.72276 3.59089 11.0696 3.22389 11.4198C3.10383 11.5337 2.97245 11.5229 2.97472 11.2973C2.97472 11.1492 2.98377 9.45639 2.98377 9.45639C2.9815 9.45639 2.9815 9.45639 2.98377 9.45639C0.677589 8.85058 0.813513 6.57137 0.838429 5.37913C0.863344 4.18691 1.10122 3.20949 1.80349 2.55216C3.06532 1.46732 5.66373 1.62845 5.66373 1.62845C7.85888 1.63703 8.91003 2.26427 9.1547 2.4748C9.96341 3.13215 10.3758 4.70463 10.0744 7.00962Z" fill="white"/>
    <path d="M6.92552 5.27372C6.93458 5.45845 6.64235 5.47136 6.6333 5.28659C6.60836 4.81401 6.37502 4.58419 5.89477 4.55841C5.69993 4.54765 5.71806 4.27055 5.9106 4.28131C6.54269 4.31352 6.89382 4.65721 6.92552 5.27372Z" fill="#834995"/>
    <path d="M7.38545 5.51671C7.40807 4.60587 6.80778 3.89268 5.66826 3.81321C5.47569 3.80032 5.49609 3.52319 5.68868 3.53608C7.00262 3.62633 7.7026 4.48346 7.67768 5.52316C7.67541 5.70789 7.38089 5.69933 7.38545 5.51671Z" fill="#834995"/>
    <path d="M8.45013 5.80452C8.45237 5.98927 8.15788 5.9914 8.15788 5.80668C8.14428 4.05595 6.9142 3.10217 5.42128 3.09143C5.22871 3.08928 5.22871 2.81433 5.42128 2.81433C7.09088 2.82507 8.43426 3.91845 8.45013 5.80452Z" fill="#834995"/>
    <path d="M8.19414 7.91188V7.91621C7.94947 8.32436 7.49187 8.77551 7.02067 8.63157L7.01613 8.62509C6.53812 8.49838 5.41227 7.94844 4.70092 7.41138C4.33392 7.1364 3.99863 6.81204 3.74037 6.50054C3.50705 6.22341 3.27147 5.89472 3.04266 5.49949C2.56014 4.67242 2.45367 4.30294 2.45367 4.30294C2.30189 3.85612 2.77535 3.42216 3.20802 3.19018H3.21258C3.42098 3.08704 3.62033 3.12143 3.75399 3.27393C3.75399 3.27393 4.03491 3.59183 4.15495 3.7487C4.26823 3.89476 4.42002 4.1289 4.4993 4.25994C4.6375 4.49408 4.55138 4.73254 4.41548 4.83132L4.14363 5.03758C4.00546 5.14282 4.02357 5.33831 4.02357 5.33831C4.02357 5.33831 4.4268 6.78406 5.9333 7.14926C5.9333 7.14926 6.13948 7.16646 6.25044 7.03541L6.46794 6.77763C6.57212 6.64873 6.82362 6.56712 7.07053 6.69816C7.40355 6.87644 7.82717 7.15357 8.10809 7.40492C8.26664 7.52735 8.30288 7.71428 8.19414 7.91188Z" fill="#834995"/>
</svg>
