<svg width="22" height="22" viewBox="0 0 22 22" fill="none" xmlns="http://www.w3.org/2000/svg">
    <path fill-rule="evenodd" clip-rule="evenodd" d="M11 0C4.92487 0 0 4.92487 0 11C0 17.0751 4.92487 22 11 22C17.0751 22 22 17.0751 22 11C22 4.92487 17.0751 0 11 0ZM11 1.32C5.65388 1.32 1.32 5.65388 1.32 11C1.32 16.3461 5.65388 20.68 11 20.68C16.3461 20.68 20.68 16.3461 20.68 11C20.68 5.65388 16.3461 1.32 11 1.32ZM15.8186 15.1843C15.8269 15.1393 15.833 15.0937 15.84 15.0486V6.95142C15.8332 6.90706 15.8274 6.86256 15.8191 6.81835C15.7344 6.3648 15.3766 6.01282 14.9372 5.94997C14.919 5.94751 14.9011 5.94332 14.8832 5.94H7.11682C7.06997 5.94881 7.02284 5.95546 6.97668 5.96644C6.54781 6.06859 6.23049 6.42967 6.1694 6.88395C6.16691 6.90287 6.16318 6.92166 6.16 6.94059V15.0598C6.16885 15.1113 6.17589 15.1632 6.18695 15.2143C6.28176 15.6527 6.63972 15.9925 7.06554 16.0497C7.08614 16.0523 7.10687 16.0565 7.12746 16.06H14.8725C14.9228 16.051 14.9733 16.0437 15.023 16.0324C15.4183 15.9447 15.7413 15.5999 15.8186 15.1843ZM7.20735 14.5635C7.20735 14.779 7.38577 14.9642 7.59184 14.9642C9.86344 14.9643 12.1349 14.9643 14.4065 14.9642C14.6145 14.9642 14.792 14.7793 14.792 14.5622C14.7921 13.0663 14.792 11.5706 14.792 10.0748V10.0438H13.8679C13.9984 10.4797 14.0384 10.9231 13.9873 11.3751C13.9359 11.8272 13.7966 12.248 13.5696 12.6365C13.3426 13.0254 13.0482 13.3477 12.6877 13.6041C11.7534 14.2693 10.5234 14.3279 9.53202 13.7462C9.03087 13.4524 8.63739 13.0428 8.36305 12.515C7.95381 11.7274 7.88844 10.9007 8.12851 10.043C7.82196 10.0433 7.51666 10.0433 7.20721 10.0433V10.0706C7.20721 11.5683 7.20707 13.0659 7.20735 14.5635ZM10.955 13.0496C12.051 13.0741 12.9375 12.1587 12.9606 11.0452C12.9842 9.89697 12.0983 8.94855 11.0001 8.94927C9.92646 8.94855 9.05368 9.8516 9.03861 10.9689C9.02313 12.1163 9.90172 13.0259 10.955 13.0496ZM14.7918 8.1319C14.792 7.81243 14.792 7.49282 14.7918 7.17336C14.7918 6.9442 14.6184 6.76185 14.3995 6.76171C14.0947 6.76156 13.7899 6.76142 13.4851 6.76171C13.2667 6.762 13.0927 6.94478 13.0925 7.17393C13.0924 7.49065 13.0916 7.80737 13.0937 8.12424C13.0939 8.17149 13.1025 8.22061 13.1169 8.2654C13.1716 8.43402 13.3193 8.53748 13.5003 8.53834C13.6473 8.53863 13.7944 8.5382 13.9416 8.5382C14.1008 8.53632 14.2606 8.5395 14.4199 8.53545C14.6249 8.53011 14.7918 8.34646 14.7918 8.1319Z" fill="#FCFEFC"/>
</svg>
