<svg width="22" height="22" viewBox="0 0 22 22" fill="none" xmlns="http://www.w3.org/2000/svg">
    <path fill-rule="evenodd" clip-rule="evenodd" d="M11 22C17.0751 22 22 17.0751 22 11C22 4.92487 17.0751 0 11 0C4.92487 0 0 4.92487 0 11C0 17.0751 4.92487 22 11 22ZM11 20.68C16.3461 20.68 20.68 16.3461 20.68 11C20.68 5.65388 16.3461 1.32 11 1.32C5.65388 1.32 1.32 5.65388 1.32 11C1.32 16.3461 5.65388 20.68 11 20.68ZM6.16 8.85194V15.2496H8.23244V8.85194H6.16ZM7.33247 5.72C6.6235 5.72 6.16 6.19778 6.16 6.82507C6.16 7.43936 6.6098 7.93089 7.30556 7.93089H7.31881C8.04143 7.93089 8.49148 7.43936 8.49148 6.82507C8.47803 6.19778 8.04143 5.72 7.33247 5.72ZM13.4538 8.85194C12.3535 8.85194 11.8609 9.4729 11.5858 9.90851V9.00234H9.51314C9.54045 9.60266 9.51314 15.4 9.51314 15.4H11.5858V11.827C11.5858 11.6358 11.5993 11.4451 11.6541 11.3082C11.8039 10.9262 12.1449 10.5307 12.7174 10.5307C13.4677 10.5307 13.7676 11.1174 13.7676 11.9771V15.3998H15.8399L15.84 11.7316C15.84 9.76652 14.8176 8.85194 13.4538 8.85194Z" fill="#FCFEFC"/>
</svg>
